<?xml version="1.0" standalone="no"?>
<!DOCTYPE svg PUBLIC "-//W3C//DTD SVG 20010904//EN"
 "http://www.w3.org/TR/2001/REC-SVG-20010904/DTD/svg10.dtd">
<svg version="1.0" xmlns="http://www.w3.org/2000/svg"
 width="1021.000000pt" height="979.000000pt" viewBox="0 0 1021.000000 979.000000"
 preserveAspectRatio="xMidYMid meet">
<metadata>
Created by potrace 1.16, written by Peter Selinger 2001-2019
</metadata>
<g transform="translate(0.000000,979.000000) scale(0.100000,-0.100000)"
fill="#000000" stroke="none">
<path d="M0 4927 l0 -4862 23 -10 c12 -6 26 -20 32 -33 l10 -22 5072 0 5073 0
0 4895 0 4895 -5105 0 -5105 0 0 -4863z m4227 656 c-4 -124 -7 -423 -7 -663
l0 -437 -30 -38 c-21 -26 -30 -49 -30 -74 0 -102 -49 -169 -146 -197 -49 -14
-68 -15 -112 -6 -46 10 -406 182 -501 240 l-31 19 -233 -115 c-127 -63 -249
-120 -271 -128 -88 -32 -169 -10 -218 59 l-23 32 -5 625 c-3 344 -7 626 -8
628 -1 1 -60 2 -131 2 -71 0 -142 5 -157 10 l-26 10 5 128 c3 70 6 128 6 130
1 1 434 2 963 2 l961 0 -6 -227z m2549 -111 c78 -21 221 -79 230 -93 3 -5 -6
-44 -20 -87 -13 -42 -32 -106 -42 -142 -9 -36 -21 -69 -26 -75 -5 -6 -29 14
-63 52 -68 76 -118 97 -225 98 -107 0 -184 -26 -237 -80 -40 -39 -43 -46 -43
-95 l0 -53 145 8 c80 3 215 3 300 0 l155 -8 0 -128 0 -129 -27 -2 c-42 -3 -96
-4 -353 -6 -129 -1 -241 -6 -249 -11 -11 -7 -10 -16 6 -52 42 -94 133 -139
277 -139 99 0 220 39 293 93 l47 35 33 -107 c18 -58 32 -114 33 -123 0 -23
-50 -59 -140 -102 -162 -77 -313 -94 -463 -52 -265 73 -377 247 -377 584 0
327 91 493 317 578 69 26 79 29 143 44 67 15 213 11 286 -8z m-1148 -53 c132
-35 196 -78 206 -138 5 -34 0 -52 -31 -116 -27 -54 -42 -75 -53 -71 -8 3 -54
21 -103 41 -112 46 -189 59 -270 45 -101 -18 -122 -41 -93 -98 21 -40 79 -68
201 -97 177 -41 283 -102 324 -184 51 -100 53 -233 5 -326 -73 -145 -259 -237
-447 -222 -143 12 -241 48 -334 124 -71 59 -71 60 -2 168 33 52 62 95 64 95 2
0 26 -15 54 -34 55 -37 148 -71 224 -82 98 -13 182 34 175 100 -4 43 -45 67
-211 122 -78 26 -163 60 -188 76 -85 52 -129 144 -129 272 0 108 12 138 88
215 60 61 75 71 149 95 140 47 237 50 371 15z m-3588 -24 c187 -39 313 -126
345 -239 31 -106 -3 -194 -93 -240 -82 -43 -82 -41 -11 -75 116 -54 133 -84
127 -210 -9 -175 -104 -275 -313 -333 -72 -19 -106 -21 -327 -22 -285 -1 -282
-2 -331 96 l-28 56 0 368 c0 203 0 378 1 388 0 18 1 18 18 3 26 -24 30 -22 47
21 9 20 23 48 32 62 l17 25 6 -24 c10 -41 24 -34 52 26 15 32 36 73 45 91 l18
34 161 -6 c89 -3 194 -13 234 -21z m2701 -1 c44 -40 45 -43 41 -586 l-4 -518
-128 0 c-124 0 -128 1 -134 23 -12 45 -6 990 7 1027 7 20 27 44 47 58 29 20
44 23 92 20 38 -3 64 -11 79 -24z m-1251 -1228 c67 -34 103 -91 108 -170 5
-77 -9 -126 -51 -173 -126 -144 -350 -61 -374 136 -21 177 153 290 317 207z"/>
<path d="M2894 5522 c-21 -13 -24 -137 -17 -604 l6 -467 66 36 c36 20 122 67
191 106 155 87 218 117 248 117 12 0 98 -40 190 -89 269 -142 362 -191 365
-191 1 0 2 244 2 543 0 350 -4 545 -10 549 -5 4 -51 8 -101 8 -91 0 -92 0 -99
-27 -3 -14 -5 -138 -4 -274 2 -217 0 -251 -14 -273 -23 -35 -52 -48 -107 -49
-60 -1 -105 30 -120 81 -5 20 -10 138 -10 262 0 124 -3 235 -6 248 -6 21 -12
22 -90 22 l-84 0 -1 -262 c-1 -145 -4 -274 -8 -287 -21 -77 -170 -95 -215 -26
-12 18 -15 75 -18 293 -2 149 -5 272 -8 275 -10 8 -145 16 -156 9z"/>
<path d="M1680 5088 c0 -162 -16 -148 177 -148 l166 0 33 35 c78 83 40 183
-77 206 -24 4 -101 8 -171 9 l-128 0 0 -102z"/>
<path d="M1681 4683 c-1 -32 2 -86 5 -120 l6 -63 82 0 c125 0 247 17 276 38
14 10 33 34 42 53 22 44 10 98 -29 129 -24 18 -40 20 -204 20 l-178 0 0 -57z"/>
</g>
</svg>
